<!--?xml version="1.0" encoding="utf-8"?-->
<!-- Generator: Adobe Illustrator 18.1.1, SVG Export Plug-In . SVG Version: 6.00 Build 0)  -->

<svg version="1.1" id="_x31_0" xmlns="http://www.w3.org/2000/svg" xmlns:xlink="http://www.w3.org/1999/xlink" x="0px" y="0px" viewBox="0 0 512 512" style="width: 256px; height: 256px; opacity: 1;" xml:space="preserve">
<style type="text/css">
	.st0{fill:#374149;}
</style>
<g>
	<path class="st0" d="M256,2.68c-141.359,0-256,114.558-256,256C0,382.039,87.359,485.078,203.519,509.32v-41.68h104.962v34.672
		l-0.031,6.851c0.011-0.003,0.019-0.007,0.031-0.007v0.164C424.718,485.078,512,382.039,512,258.68
		C512,117.238,397.442,2.68,256,2.68z M204.242,435.48c-0.402,0-0.723-0.082-0.723-0.242v-52.476v-0.004h104.962v52.48
		c0,0.16-0.238,0.242-0.641,0.242H204.242z M307.84,348.281H204.242c-0.402,0-0.723-0.32-0.723-0.722V256.36
		c0-0.398-0.238-0.719-0.64-0.719h-65.68c-8.641,0-13.758-10-8.32-16.961L247.602,93.48c4.238-5.519,12.641-5.519,16.957,0
		L383.282,238.68c5.199,6.961,0.32,16.961-8.402,16.961h-65.598c-0.402,0-0.723,0.321-0.723,0.719v91.199
		C308.558,347.961,308.242,348.281,307.84,348.281z"></path>
</g>
</svg>
